HIERARCHY
ROOT Hips
{
	OFFSET 0.00000 0.00000 0.00000
	CHANNELS 6 Xposition Yposition Zposition Zrotation Yrotation Xrotation 
	JOINT LHipJoint
	{
		OFFSET 0 0 0
		CHANNELS 3 Zrotation Yrotation Xrotation
		JOINT LeftUpLeg
		{
			OFFSET 1.81638 -1.86202 0.89635
			CHANNELS 3 Zrotation Yrotation Xrotation
			JOINT LeftLeg
			{
				OFFSET 2.63464 -7.23861 0.00000
				CHANNELS 3 Zrotation Yrotation Xrotation
				JOINT LeftFoot
				{
					OFFSET 2.45871 -6.75336 0.00000
					CHANNELS 3 Zrotation Yrotation Xrotation
					JOINT LeftToeBase
					{
						OFFSET 0.34235 -0.94059 2.20020
						CHANNELS 3 Zrotation Yrotation Xrotation
						End Site
						{
							OFFSET 0.00000 -0.00000 1.18611
						}
					}
				}
			}
		}
	}
	JOINT RHipJoint
	{
		OFFSET 0 0 0
		CHANNELS 3 Zrotation Yrotation Xrotation
		JOINT RightUpLeg
		{
			OFFSET -1.84405 -1.86203 0.89635
			CHANNELS 3 Zrotation Yrotation Xrotation
			JOINT RightLeg
			{
				OFFSET -2.71067 -7.44751 0.00000
				CHANNELS 3 Zrotation Yrotation Xrotation
				JOINT RightFoot
				{
					OFFSET -2.47159 -6.79060 0.00000
					CHANNELS 3 Zrotation Yrotation Xrotation
					JOINT RightToeBase
					{
						OFFSET -0.26223 -0.72048 2.36007
						CHANNELS 3 Zrotation Yrotation Xrotation
						End Site
						{
							OFFSET -0.00000 -0.00000 1.23343
						}
					}
				}
			}
		}
	}
	JOINT LowerBack
	{
		OFFSET 0 0 0
		CHANNELS 3 Zrotation Yrotation Xrotation
		JOINT Spine
		{
			OFFSET 0.02089 1.99248 -0.22512
			CHANNELS 3 Zrotation Yrotation Xrotation
			JOINT Spine1
			{
				OFFSET 0.01476 2.01356 -0.03079
				CHANNELS 3 Zrotation Yrotation Xrotation
				JOINT Neck
				{
					OFFSET 0 0 0
					CHANNELS 3 Zrotation Yrotation Xrotation
					JOINT Neck1
					{
						OFFSET 0.04846 1.65098 0.06663
						CHANNELS 3 Zrotation Yrotation Xrotation
						JOINT Head
						{
							OFFSET -0.06061 1.60634 -0.07565
							CHANNELS 3 Zrotation Yrotation Xrotation
							End Site
							{
								OFFSET -0.02954 1.73562 -0.03642
							}
						}
					}
				}
				JOINT LeftShoulder
				{
					OFFSET 0 0 0
					CHANNELS 3 Zrotation Yrotation Xrotation
					JOINT LeftArm
					{
						OFFSET 3.45234 1.47051 -0.06993
						CHANNELS 3 Zrotation Yrotation Xrotation
						JOINT LeftForeArm
						{
							OFFSET 5.49313 -0.00000 0.00000
							CHANNELS 3 Zrotation Yrotation Xrotation
							JOINT LeftHand
							{
								OFFSET 3.29037 -0.00000 0.00000
								CHANNELS 3 Zrotation Yrotation Xrotation
								JOINT LeftFingerBase
								{
									OFFSET 0 0 0
									CHANNELS 3 Zrotation Yrotation Xrotation
									JOINT LeftHandIndex1
									{
										OFFSET 0.72966 -0.00000 0.00000
										CHANNELS 3 Zrotation Yrotation Xrotation
										End Site
										{
											OFFSET 0.58827 -0.00000 0.00000
										}
									}
								}
								JOINT LThumb
								{
									OFFSET 0 0 0
									CHANNELS 3 Zrotation Yrotation Xrotation
									End Site
									{
										OFFSET 0.59725 -0.00000 0.59725
									}
								}
							}
						}
					}
				}
				JOINT RightShoulder
				{
					OFFSET 0 0 0
					CHANNELS 3 Zrotation Yrotation Xrotation
					JOINT RightArm
					{
						OFFSET -3.41935 1.44327 0.20453
						CHANNELS 3 Zrotation Yrotation Xrotation
						JOINT RightForeArm
						{
							OFFSET -5.23684 -0.00000 0.00000
							CHANNELS 3 Zrotation Yrotation Xrotation
							JOINT RightHand
							{
								OFFSET -3.38251 -0.00000 0.00000
								CHANNELS 3 Zrotation Yrotation Xrotation
								JOINT RightFingerBase
								{
									OFFSET 0 0 0
									CHANNELS 3 Zrotation Yrotation Xrotation
									JOINT RightHandIndex1
									{
										OFFSET -0.69145 -0.00000 0.00000
										CHANNELS 3 Zrotation Yrotation Xrotation
										End Site
										{
											OFFSET -0.55747 -0.00000 0.00000
										}
									}
								}
								JOINT RThumb
								{
									OFFSET 0 0 0
									CHANNELS 3 Zrotation Yrotation Xrotation
									End Site
									{
										OFFSET -0.56598 -0.00000 0.56598
									}
								}
							}
						}
					}
				}
			}
		}
	}
}
MOTION
Frames: 16
Frame Time: 0.0833333
0.00 0.00 0.00 0 0 0 0 0 0 -21 0 0 0 0 0 0 0 0 0 0 0 0 0 0 21 0 0 0 0 0 0 0 0 0 0 0 0 0 0 0 0 0 0 0 0 0 0 -16 0 0 21 0 0 11 0 0 0 -8 0 0 0 0 0 0 0 0 0 0 0 0 0 0 0 0 0 0 0 0 8 0 0 0 0 0 0 0 0 0 0 0 0 0 0 0 0 0
0.00 0.00 0.00 -25.7488 76.1407 -20.2093 0.0000 0.0000 0.0000 -10.1535 -7.4050 -21.6837 5.1557 13.5570 41.4910 0.3111 -27.9802 -21.5729 0.2642 3.3068 9.1342 0.0000 0.0000 0.0000 24.3366 8.7453 -3.3785 -3.7000 -11.7501 34.8535 -1.4908 11.5814 -22.1246 -1.2780 7.1644 -20.2034 -0.9679 0.8598 17.6752 1.6078 1.4047 7.4119 1.9701 0.8141 -2.0352 -1.1113 3.5767 -1.4572 -2.8528 4.7233 -6.8369 -0.7594 2.4845 -1.8353 0.0000 -0.0000 0.0000 -77.8968 7.7087 26.9146 26.2471 -37.4517 -9.0375 -0.0000 -0.0000 1.8953 -2.1698 8.3147 -0.3139 -7.1250 0.0000 -0.0000 -24.3181 37.1815 5.0484 0.0000 -0.0000 0.0000 74.0488 -2.3479 44.0601 -26.0041 37.2128 -8.8902 0.0000 -0.0000 -4.5039 -7.9231 -16.2268 2.2271 7.1250 -0.0000 -0.0000 18.4585 -45.5079 -0.2396
0.00 0.00 0.00 -19.2462 76.3223 -14.4336 0.0000 0.0000 0.0000 -13.0119 -6.5926 -18.6835 4.9161 13.2887 40.4589 0.5786 -28.0688 -23.0976 0.2941 3.4870 9.6378 0.0000 0.0000 0.0000 20.0491 9.6845 -11.1052 -7.4703 -15.7155 50.6314 -0.0730 18.4350 -13.6130 -0.5650 4.8143 -13.3797 -3.8119 0.3585 18.6743 1.1044 0.2904 7.9561 3.2692 0.2243 -1.9067 -3.0282 3.9958 -2.6280 -1.4866 5.4077 -7.0276 -0.0056 2.8508 -1.7831 -0.0000 -0.0000 0.0000 -77.9580 2.6873 25.0607 27.3382 -38.4998 -9.7089 -0.0000 -0.0000 3.7193 0.9356 7.3127 0.1191 -7.1250 0.0000 -0.0000 -21.5605 36.4775 4.7976 -0.0000 -0.0000 0.0000 73.0056 -0.9425 44.3593 -22.8889 33.9671 -7.0761 0.0000 0.0000 2.2147 -6.3379 -16.7492 1.8333 7.1250 -0.0000 -0.0000 20.0646 -45.8098 -0.4179
0.00 0.00 0.00 -18.1320 78.6979 -11.4078 0.0000 0.0000 0.0000 -16.1355 -7.3786 -4.2825 2.1664 9.2043 26.4366 0.8385 -25.0243 -22.7802 0.4242 4.1800 11.5836 0.0000 0.0000 0.0000 16.8108 18.9036 -23.4522 -4.5627 -12.8737 38.8975 0.0341 20.7360 -14.3268 -0.4553 4.3287 -12.0032 -4.6606 -2.0973 18.9762 2.3986 -3.1558 5.8522 5.8912 -1.4564 -3.8752 -1.3660 4.6585 -3.6461 -3.1280 6.2294 -6.3001 -0.7399 3.2291 -1.2755 -0.0000 -0.0000 0.0000 -72.1263 0.7294 32.7128 50.6704 -53.2623 -26.7104 -0.0000 0.0000 -2.6571 -1.4751 13.2348 -0.3378 -7.1250 0.0000 -0.0000 -25.4365 41.7109 2.2254 -0.0000 -0.0000 0.0000 68.9289 -8.9303 45.5907 -23.9566 35.1183 -7.6815 0.0000 0.0000 1.4432 -6.6834 -16.6538 1.9234 7.1250 -0.0000 -0.0000 19.7208 -45.7622 -0.3861
0.00 0.00 0.00 -39.5740 83.0500 -33.0098 0.0000 0.0000 0.0000 -10.3107 -0.5317 -10.9620 6.4375 14.8393 46.7133 -3.8499 -38.0716 -7.4496 0.3964 4.0424 11.1960 0.0000 0.0000 0.0000 22.5564 22.9401 -17.4931 -4.5412 -12.8477 38.8010 -0.6552 17.2881 -17.6935 -0.0747 -1.7637 4.8531 0.1459 -4.3417 18.0220 5.5667 -4.9803 4.7437 6.9359 -2.3225 -4.4495 1.2900 4.6172 -1.0645 -9.8012 5.6946 -9.4210 -3.5491 3.1689 -2.5047 -0.0000 0.0000 0.0000 -79.0541 10.4824 32.0678 41.5460 -48.9596 -19.5974 -0.0000 -0.0000 5.2887 -11.1722 21.0019 -4.0489 -7.1250 0.0000 -0.0000 -37.2561 47.2567 -2.3994 -0.0000 0.0000 0.0000 66.5444 -15.7897 47.2512 -23.5071 34.6387 -7.4246 0.0000 0.0000 3.7385 -1.9249 -15.9507 0.5292 7.1250 -0.0000 -0.0000 23.6182 -44.5449 0.2817
0.00 0.00 0.00 -37.9907 81.7648 -31.8216 0.0000 0.0000 0.0000 -6.8176 -1.6325 -20.2665 11.2804 18.0696 63.6889 -3.8448 -35.9767 -3.4216 0.0007 -0.1750 -0.4807 0.0000 0.0000 0.0000 25.3935 20.6196 -12.4017 -4.4108 -12.6879 38.2110 -0.9457 19.3525 -20.6575 -0.1002 -2.0411 5.6193 1.6032 -2.9504 18.4477 6.5390 -2.7544 5.4454 6.6979 -1.2042 -4.1929 1.8533 4.3640 0.3025 -12.1029 5.0570 -11.6641 -4.1193 3.0658 -3.1177 -0.0000 0.0000 0.0000 -86.5216 17.8721 31.9672 29.6753 -40.6134 -11.1976 -0.0000 -0.0000 8.5802 1.2320 15.2387 0.3239 -7.1250 0.0000 -0.0000 -23.9302 43.8156 0.7448 -0.0000 0.0000 0.0000 68.4300 -16.6518 43.2426 -20.5142 31.2568 -5.7958 0.0000 0.0000 6.8395 -8.8051 -17.0052 2.5938 7.1250 -0.0000 -0.0000 17.9526 -46.3600 -0.6223
0.00 0.00 0.00 -24.5959 82.6061 -15.1168 0.0000 0.0000 0.0000 -9.7013 -8.4986 -29.7717 6.8996 15.2468 48.4938 0.3671 -24.8565 -19.8916 0.1873 -2.7871 -7.6865 0.0000 0.0000 0.0000 23.2267 17.1407 -3.2780 -1.8635 -8.5758 24.4771 -0.1510 18.5857 -14.3821 -0.0496 -1.4372 3.9525 0.5383 -1.2877 17.9307 4.7168 -0.9879 4.8383 4.9357 -0.3587 -4.7671 2.0006 3.8834 -0.7114 -11.1661 4.5073 -11.8695 -3.8288 2.7364 -3.0723 -0.0000 0.0000 0.0000 -87.2956 30.1521 32.1731 27.6367 -38.7796 -9.8953 -0.0000 -0.0000 1.8763 -18.7616 14.8095 -4.9622 -7.1250 0.0000 -0.0000 -39.6465 41.1801 4.5777 -0.0000 0.0000 0.0000 69.1084 -20.0969 46.1177 -25.9555 37.1647 -8.8607 0.0000 -0.0000 -1.9433 -9.8368 -13.8755 2.3811 7.1250 -0.0000 -0.0000 15.9850 -43.4631 0.6233
0.00 0.00 0.00 -21.0346 77.9446 -10.9303 0.0000 0.0000 0.0000 -10.5345 -8.8010 -27.5765 4.8892 13.2579 40.3419 0.7988 -19.5681 -19.7740 0.1757 2.6997 7.4438 0.0000 0.0000 0.0000 22.2111 19.5335 -4.4121 -4.9477 -13.3247 40.5964 1.6046 24.5495 -3.0832 -0.1725 2.6757 -7.3770 -3.0584 1.1237 18.2454 -0.4344 1.1370 5.0548 1.0162 0.6752 -4.8236 5.3444 2.9591 3.4400 -4.2248 4.1375 -15.4671 -2.4191 2.1116 -5.0013 -0.0000 -0.0000 0.0000 -72.4537 29.3194 40.7566 31.0781 -41.7997 -12.1219 -0.0000 0.0000 -3.7034 -18.7986 15.2257 -5.1085 -7.1250 0.0000 -0.0000 -39.8933 41.5181 4.2029 -0.0000 -0.0000 0.0000 77.4732 -21.5882 38.8210 -24.1834 35.3576 -7.8125 0.0000 0.0000 0.3089 -13.0153 -16.5525 3.7677 7.1250 -0.0000 -0.0000 13.9736 -46.4563 -0.5120
0.00 0.00 0.00 11.8915 86.9791 29.1985 0.0000 0.0000 0.0000 -11.7939 -8.6794 -51.2300 8.2262 16.2831 53.3735 0.5413 -20.5689 -18.5154 0.2783 -3.3933 -9.3757 0.0000 0.0000 0.0000 14.2576 18.6608 -39.1307 -8.2115 -16.2726 53.3208 -2.0737 8.5821 -25.8545 -0.2588 3.2731 -9.0400 -1.4430 0.9275 31.1649 0.7595 1.5430 7.9938 1.0822 1.0372 -8.0756 6.7353 0.9570 -0.6867 -8.0984 0.9735 -8.4354 -3.9353 0.5593 -2.5506 -0.0000 0.0000 0.0000 -76.3945 16.4090 30.0608 24.1881 -35.3625 -7.8151 -0.0000 -0.0000 9.2813 -10.8556 6.7110 -1.2838 -7.1250 0.0000 -0.0000 -30.4152 35.0823 8.4321 -0.0000 0.0000 0.0000 76.9196 -13.6222 42.2128 -27.3095 38.4728 -9.6911 0.0000 -0.0000 -1.7669 -10.0397 -16.1515 2.8195 7.1250 -0.0000 -0.0000 16.5374 -45.6922 -0.2905
0.00 0.00 0.00 -5.7187 86.7627 12.9432 0.0000 0.0000 0.0000 -10.9941 -7.0602 -56.7442 12.1858 18.4681 66.5766 0.9571 -23.4644 -22.6536 0.0171 0.8440 2.3196 0.0000 0.0000 0.0000 14.1474 19.4182 -45.0863 -12.8455 -18.7257 68.6449 -2.8723 10.5770 -30.5632 -0.8121 5.7509 -16.0632 -1.7316 0.9012 31.8258 0.6507 1.4008 7.9543 1.1695 0.9745 -8.4272 6.5439 1.4117 -0.8413 -8.1749 1.5091 -10.9503 -3.5997 0.8939 -2.9784 -0.0000 -0.0000 0.0000 -73.7255 12.1875 30.5813 26.8347 -38.0211 -9.3971 -0.0000 -0.0000 9.5721 -7.6338 5.5235 -0.7391 -7.1250 0.0000 -0.0000 -27.6511 34.2713 8.0984 -0.0000 -0.0000 0.0000 76.1424 -10.2383 42.0772 -24.4842 35.6721 -7.9872 0.0000 0.0000 2.6731 -10.1142 -16.9832 2.9826 7.1250 -0.0000 -0.0000 16.7613 -46.5053 -0.6403
0.00 0.00 0.00 -86.7795 88.5379 -65.2736 0.0000 0.0000 0.0000 -10.2267 -10.5449 -47.4215 13.0423 18.7974 69.2567 3.0604 -22.3523 -33.1459 0.0572 -1.5434 -4.2454 0.0000 0.0000 0.0000 17.8817 17.1327 -35.5933 -13.1217 -18.8257 69.5031 -3.3810 8.7549 -33.3359 -2.4645 9.7731 -28.2451 -1.8680 0.7875 27.4209 0.7454 0.9176 4.2803 1.5659 0.6538 -10.4568 5.5168 0.4947 -6.3828 -6.5327 0.3209 -14.3491 -3.2041 0.3190 -3.5902 0.0000 -0.0000 0.0000 -62.1885 6.2508 31.3533 72.7779 -58.8491 -45.1429 -0.0000 -0.0000 4.2449 7.0979 -0.8463 -0.1054 -7.1250 0.0000 -0.0000 -15.0796 28.9683 6.0829 0.0000 -0.0000 0.0000 68.1649 -14.3450 46.1236 -33.5177 43.7242 -13.7786 0.0000 -0.0000 -3.0719 -23.2781 -18.8873 7.9282 7.1250 -0.0000 -0.0000 4.9317 -50.3430 -0.6508
0.00 0.00 0.00 -115.9520 86.6930 -96.7768 0.0000 0.0000 0.0000 -10.0213 -10.8324 -33.8633 9.1463 16.9009 56.5947 1.7533 -22.2052 -26.5732 0.2059 -2.9219 -8.0615 0.0000 0.0000 0.0000 21.5776 12.5958 -23.0166 -8.4640 -16.4502 54.2174 -1.3590 11.5828 -21.1849 -2.5567 9.9403 -28.7836 -0.3403 0.4856 24.8366 1.6579 1.0049 3.5076 1.6922 0.6322 -9.9895 6.2387 0.3903 -5.2080 -8.2930 -0.0100 -12.6362 -3.5678 0.1543 -2.8808 -0.0000 0.0000 0.0000 -61.3315 11.7591 31.4872 90.2022 -59.9998 -60.1751 -0.0000 -0.0000 4.6883 5.7402 -2.7790 -0.2792 -7.1250 0.0000 -0.0000 -15.8292 27.0775 7.1455 -0.0000 0.0000 0.0000 65.5348 -19.4828 46.9474 -37.3531 46.4212 -16.4954 0.0000 -0.0000 -5.4094 -28.5995 -18.5967 9.8634 7.1250 -0.0000 -0.0000 -0.4506 -50.9476 0.0660
0.00 0.00 0.00 -118.2790 86.0193 -101.4510 0.0000 0.0000 0.0000 -10.6504 -10.4102 -23.8708 6.4695 14.8684 46.8382 0.3444 -21.2842 -17.5439 0.4609 -4.3548 -12.0771 0.0000 0.0000 0.0000 21.9440 10.2571 -15.6944 -6.2087 -14.6276 45.8137 0.2152 12.2801 -5.2792 -1.9421 8.7444 -24.9991 0.6890 0.3748 23.0125 2.0842 1.1331 3.4608 1.5384 0.6589 -9.0735 6.3488 0.4538 -4.2965 -9.1738 0.1258 -8.7675 -4.2039 0.1424 -2.0790 0.0000 0.0000 0.0000 -61.4726 14.0310 31.5601 92.9127 -59.9679 -62.5222 -0.0000 -0.0000 3.8758 3.9125 -3.3061 -0.2260 -7.1250 0.0000 -0.0000 -17.1056 26.5552 7.9920 0.0000 0.0000 0.0000 64.5747 -21.4568 47.2377 -36.3684 45.7649 -15.7859 0.0000 -0.0000 -5.7012 -32.9204 -17.9903 11.3080 7.1250 -0.0000 -0.0000 -4.9559 -51.0630 0.7418
0.00 0.00 0.00 -116.8130 86.1381 -102.4610 0.0000 0.0000 0.0000 -11.4579 -9.2686 -15.0596 4.2541 12.4910 37.4920 -0.8813 -18.4286 -2.2896 0.9727 -6.2789 -17.5957 0.0000 0.0000 0.0000 20.7847 9.7059 -10.1676 -5.2040 -13.6099 41.6968 0.1728 8.0715 6.5165 -1.2617 7.1203 -20.0722 1.4557 0.3279 21.3090 2.2241 1.2164 3.6710 1.2354 0.6811 -7.9267 5.9755 0.5552 -4.2658 -10.0296 0.4572 -3.5343 -4.3751 0.2191 -0.3352 -0.0000 0.0000 0.0000 -62.1784 15.2061 30.6572 90.1094 -60.0000 -60.0947 -0.0000 -0.0000 3.2035 2.2097 -3.4643 -0.1336 -7.1250 0.0000 -0.0000 -18.3276 26.3869 8.6973 -0.0000 0.0000 0.0000 64.4240 -21.9586 46.6838 -33.2919 43.5532 -13.6228 0.0000 -0.0000 -4.0999 -35.8433 -17.9199 12.5311 7.1250 -0.0000 -0.0000 -8.0169 -51.5541 1.3011
0.00 0.00 0.00 -118.9950 88.1411 -107.6590 0.0000 0.0000 0.0000 -12.6957 -8.0638 -6.9214 2.7936 10.3532 30.1283 0.2786 -9.6245 17.6654 1.5842 -7.9401 -22.5323 0.0000 0.0000 0.0000 16.5717 14.1395 -6.9743 -7.2382 -15.5293 49.7697 -0.1398 2.2896 8.2952 -0.8538 5.8931 -16.4745 1.0803 0.3918 19.9903 1.6279 1.1478 4.6955 0.8338 0.6738 -6.1067 5.1092 0.5056 -4.6505 -10.6725 0.7698 1.5934 -4.4479 0.2717 1.4278 0.0000 -0.0000 0.0000 -64.0426 14.3495 26.8842 79.7114 -59.5962 -51.1019 -0.0000 -0.0000 3.3711 1.4073 -3.3884 -0.0832 -7.1250 0.0000 -0.0000 -18.9231 26.4487 8.9820 0.0000 -0.0000 0.0000 66.3045 -20.5600 41.7108 -28.8374 39.8758 -10.6563 0.0000 -0.0000 -1.1279 -34.8068 -18.1247 12.2032 7.1250 -0.0000 -0.0000 -6.9145 -51.5857 1.1260
0.00 0.00 0.00 -223.2100 87.0506 -212.4190 0.0000 0.0000 0.0000 -12.2537 -13.3120 -9.9009 5.5996 14.0288 43.3527 0.6956 -8.8949 21.4004 0.3622 -3.8661 -10.7002 0.0000 0.0000 0.0000 8.6454 21.9020 -12.2225 -12.0176 -18.3981 66.0447 -0.0805 0.8144 5.7221 -0.4381 4.2473 -11.7736 -1.9271 0.5624 21.0415 0.7428 0.7766 5.8384 1.6856 0.5516 -5.4342 4.1248 0.0677 0.1547 -10.3717 -0.0461 -3.1923 -4.1429 0.0953 -1.0599 0.0000 0.0000 0.0000 -66.6257 10.0085 23.2501 63.9730 -57.2789 -37.6658 -0.0000 -0.0000 6.9847 3.7971 -2.2850 -0.1516 -7.1250 0.0000 -0.0000 -17.3430 27.5315 7.6934 0.0000 0.0000 0.0000 70.1726 -18.6010 32.8353 -25.6833 36.8943 -8.6968 0.0000 0.0000 0.2011 -32.0337 -21.2222 12.7616 7.1250 -0.0000 -0.0000 -3.6140 -54.5547 0.8492
